<svg width="33" height="32" viewBox="0 0 33 32" fill="none" xmlns="http://www.w3.org/2000/svg">
<g clip-path="url(#clip0_3699_1804)">
<rect x="12" y="11" width="11" height="11" fill="white"/>
<path d="M32.452 9.60006C32.452 9.60006 32.1395 7.39381 31.177 6.42506C29.9583 5.15006 28.5958 5.14381 27.9708 5.06881C23.4958 4.74381 16.777 4.74381 16.777 4.74381H16.7645C16.7645 4.74381 10.0458 4.74381 5.57075 5.06881C4.94575 5.14381 3.58325 5.15006 2.3645 6.42506C1.402 7.39381 1.09575 9.60006 1.09575 9.60006C1.09575 9.60006 0.770752 12.1938 0.770752 14.7813V17.2063C0.770752 19.7938 1.0895 22.3876 1.0895 22.3876C1.0895 22.3876 1.402 24.5938 2.35825 25.5626C3.577 26.8376 5.177 26.7938 5.8895 26.9313C8.452 27.1751 16.7708 27.2501 16.7708 27.2501C16.7708 27.2501 23.4958 27.2376 27.9708 26.9188C28.5958 26.8438 29.9583 26.8376 31.177 25.5626C32.1395 24.5938 32.452 22.3876 32.452 22.3876C32.452 22.3876 32.7708 19.8001 32.7708 17.2063V14.7813C32.7708 12.1938 32.452 9.60006 32.452 9.60006ZM13.4645 20.1501V11.1563L22.1083 15.6688L13.4645 20.1501Z" fill="url(#paint0_linear_3699_1804)"/>
</g>
<defs>
<linearGradient id="paint0_linear_3699_1804" x1="-26.8559" y1="-38.3285" x2="72.4643" y2="-28.2353" gradientUnits="userSpaceOnUse">
<stop stop-color="#3D86FE"/>
<stop offset="0.502165" stop-color="#4659FF"/>
<stop offset="1" stop-color="#3F7EFE"/>
</linearGradient>
<clipPath id="clip0_3699_1804">
<rect width="32" height="32" fill="white" transform="translate(0.770752)"/>
</clipPath>
</defs>
</svg>
