<svg width="32" height="32" viewBox="0 0 32 32" fill="none" xmlns="http://www.w3.org/2000/svg">
<rect x="3.19995" y="7.46667" width="25.6" height="17.0667" fill="white"/>
<g clip-path="url(#clip0_3117_4631)">
<path fill-rule="evenodd" clip-rule="evenodd" d="M31.7707 16C31.7707 24.8366 24.6586 32 15.8854 32C7.11212 32 0 24.8366 0 16C0 7.16344 7.11212 0 15.8854 0C24.6586 0 31.7707 7.16344 31.7707 16ZM16.4546 11.8119C14.9095 12.4592 11.8215 13.7989 7.19063 15.8311C6.43865 16.1323 6.04472 16.427 6.00886 16.7151C5.94826 17.202 6.55366 17.3937 7.37806 17.6548C7.49019 17.6903 7.60638 17.7271 7.7255 17.7661C8.53658 18.0317 9.62762 18.3424 10.1948 18.3547C10.7093 18.3659 11.2835 18.1523 11.9175 17.7138C16.2443 14.772 18.4778 13.2851 18.6181 13.253C18.717 13.2304 18.8541 13.202 18.947 13.2851C19.0398 13.3683 19.0307 13.5258 19.0209 13.568C18.9609 13.8255 16.5845 16.0508 15.3547 17.2024C14.9713 17.5614 14.6994 17.816 14.6438 17.8742C14.5192 18.0045 14.3923 18.1277 14.2703 18.2461C13.5168 18.9778 12.9517 19.5264 14.3016 20.4224C14.9503 20.8529 15.4694 21.209 15.9872 21.5642C16.5528 21.9521 17.1168 22.339 17.8467 22.8209C18.0326 22.9437 18.2102 23.0712 18.3832 23.1954C19.0413 23.668 19.6327 24.0926 20.3632 24.0248C20.7876 23.9855 21.2261 23.5835 21.4488 22.3845C21.975 19.5509 23.0095 13.4113 23.2485 10.8813C23.2695 10.6596 23.2431 10.376 23.222 10.2514C23.2008 10.1269 23.1566 9.94948 22.9959 9.81813C22.8055 9.66258 22.5117 9.62978 22.3803 9.63211C21.7828 9.64271 20.8662 9.96376 16.4546 11.8119Z" fill="url(#paint0_linear_3117_4631)"/>
</g>
<defs>
<linearGradient id="paint0_linear_3117_4631" x1="-27.4287" y1="-61.2413" x2="71.699" y2="-54.2071" gradientUnits="userSpaceOnUse">
<stop stop-color="#3D86FE"/>
<stop offset="0.502165" stop-color="#4659FF"/>
<stop offset="1" stop-color="#3F7EFE"/>
</linearGradient>
<clipPath id="clip0_3117_4631">
<rect width="31.7707" height="32" fill="white"/>
</clipPath>
</defs>
</svg>
